<svg version="1.1" id="Layer_1" xmlns="http://www.w3.org/2000/svg" x="0" y="0" viewBox="0 0 120 120" xml:space="preserve"><path d="M70.87 31.79c-4.57-3.85-9.62-6.38-10.59-6.86-.12 0-.12-.12-.12-.24v-3.01c.48-.96.72-1.92.84-2.89.36.24 1.08.12 1.8-2.53.6-2.17.24-2.89-.24-3.13h-.12c.12-.36.12-.48.12-.48 2.05-8.42-2.65-8.06-2.65-8.06-.36-1.68-2.77-3.49-5.05-3.01-2.17.48-6.74-.12-6.74-.12-.12.96.72 1.68.72 1.68-4.69 2.89-2.77 9.5-2.77 9.5-.72-.12-1.56.36-.72 3.13.6 2.05 1.08 2.65 1.56 2.65.12 1.2.6 2.41 1.2 3.61v2.53c0 .12-.12.24-.12.24-.96.48-6.02 3.01-10.59 6.86-.84.72-1.32 1.68-1.32 2.77v24.3c0 2.89.96 5.53 2.77 7.82l3.85 4.57 3.49 44.63c.12 1.56 1.44 2.77 3.01 2.77l11.55-.24c1.2 0 3.01-.09 3.07-2.74-.02-1.1-.02-2.44 0-3.96-2.13-2.44-4.02-4.53-5.63-6.24l-.21-.23a5.66 5.66 0 01-1.33-3.65v-3.19c0-1.03.28-2.01.79-2.86-.52-.86-.79-1.86-.79-2.91v-2.54c0-.77.16-1.53.45-2.23-.29-.69-.45-1.45-.45-2.23v-3.3c0-1.51.58-2.92 1.63-3.97a5.572 5.572 0 013.97-1.63h2.91c.17-3.41.29-5.59.29-5.59l3.85-4.57c1.8-2.17 2.89-4.93 2.89-7.82V34.56c0-1.09-.48-2.17-1.32-2.77zM54.15 51.88l-2.89-3.13 1.8-15.64c-3.61-5.17.36-5.41 1.08-5.41.72 0 4.69.24.96 5.41l1.8 15.64-2.75 3.13z" fill="#1e7ae1"/><path d="M83.9 92.51c0 .23-.07.42-.22.57-.15.15-.34.22-.57.22h-4.2c-.38 2.39-1.46 4.34-3.23 5.86-1.75 1.49-4.05 2.4-6.91 2.75 2.8 2.94 6.63 7.4 11.5 13.38.23.26.26.54.09.83-.15.32-.39.48-.74.48h-4.85c-.26 0-.47-.1-.61-.31-5.1-6.12-9.25-10.87-12.46-14.25a.853.853 0 01-.22-.57v-3.19c0-.2.07-.38.22-.52.18-.18.36-.26.57-.26h2.8c2.21 0 3.99-.35 5.33-1.05 1.34-.73 2.19-1.78 2.54-3.15H62.26c-.23 0-.42-.07-.57-.22a.753.753 0 01-.22-.57v-2.54c0-.23.07-.44.22-.61.15-.15.33-.22.57-.22h10.31c-.93-1.86-3.16-2.8-6.69-2.8h-3.63c-.2 0-.39-.09-.57-.26a.753.753 0 01-.22-.57V82.2c0-.23.07-.42.22-.57s.33-.22.57-.22h20.81c.23 0 .42.07.57.22.15.15.22.33.22.57v2.58c0 .23-.07.42-.22.57-.15.15-.33.22-.57.22h-5.81c.76 1.02 1.28 2.21 1.57 3.58h4.28c.23 0 .42.07.57.22.14.18.22.38.22.61v2.53z"/><path d="M83.9 92.51c0 .23-.07.42-.22.57-.15.15-.34.22-.57.22h-4.2c-.38 2.39-1.46 4.34-3.23 5.86-1.75 1.49-4.05 2.4-6.91 2.75 2.8 2.94 6.63 7.4 11.5 13.38.23.26.26.54.09.83-.15.32-.39.48-.74.48h-4.85c-.26 0-.47-.1-.61-.31-5.1-6.12-9.25-10.87-12.46-14.25a.853.853 0 01-.22-.57v-3.19c0-.2.07-.38.22-.52.18-.18.36-.26.57-.26h2.8c2.21 0 3.99-.35 5.33-1.05 1.34-.73 2.19-1.78 2.54-3.15H62.26c-.23 0-.42-.07-.57-.22a.753.753 0 01-.22-.57v-2.54c0-.23.07-.44.22-.61.15-.15.33-.22.57-.22h10.31c-.93-1.86-3.16-2.8-6.69-2.8h-3.63c-.2 0-.39-.09-.57-.26a.753.753 0 01-.22-.57V82.2c0-.23.07-.42.22-.57s.33-.22.57-.22h20.81c.23 0 .42.07.57.22.15.15.22.33.22.57v2.58c0 .23-.07.42-.22.57-.15.15-.33.22-.57.22h-5.81c.76 1.02 1.28 2.21 1.57 3.58h4.28c.23 0 .42.07.57.22.14.18.22.38.22.61v2.53z" fill="#00397b"/></svg>