<svg version="1.1" id="Layer_1" xmlns="http://www.w3.org/2000/svg" x="0" y="0" viewBox="0 0 120 120" xml:space="preserve"><g fill-rule="evenodd" clip-rule="evenodd"><path d="M33.02 61.12c-14.9 0-26.98-12.08-26.98-26.98S18.12 7.16 33.02 7.16C47.92 7.15 60 19.23 60 34.14c0 14.9-12.08 26.98-26.98 26.98m10.5-32.69c0 .22-.07.39-.21.53-.14.14-.32.21-.53.21h-3.93c-.36 2.24-1.37 4.06-3.02 5.48-1.64 1.39-3.79 2.25-6.47 2.57 2.62 2.75 6.21 6.93 10.76 12.52.22.24.24.51.08.78-.14.3-.36.45-.69.45h-4.54c-.24 0-.44-.09-.57-.29-4.77-5.73-8.66-10.17-11.66-13.34a.812.812 0 01-.21-.53v-2.99c0-.19.07-.36.21-.49.17-.17.34-.24.53-.24h2.62c2.07 0 3.73-.33 4.99-.98 1.25-.68 2.05-1.67 2.38-2.95h-10c-.22 0-.39-.07-.53-.21s-.21-.31-.21-.53v-2.38c0-.22.07-.41.21-.57.14-.14.31-.21.53-.21h9.65c-.87-1.74-2.96-2.62-6.26-2.62h-3.4c-.19 0-.37-.08-.53-.24a.708.708 0 01-.21-.53v-3.1c0-.22.07-.39.21-.53s.31-.21.53-.21h19.48c.22 0 .39.07.53.21.14.14.21.31.21.53v2.41c0 .22-.07.39-.21.53-.14.14-.31.21-.53.21h-5.44c.71.95 1.2 2.07 1.47 3.35h4.01c.22 0 .39.07.53.21.13.17.21.36.21.57l.01 2.38z" fill="#1e7ae1"/><path d="M114.11 46.69L93.99 79.26c-.43.69-1.05 1.17-1.76 1.45v30.94c0 .66-.54 1.2-1.2 1.2-.66 0-1.2-.54-1.2-1.2V80.79c-.2-.06-.4-.14-.59-.24l-16.22-8.59v39.69c0 .66-.54 1.2-1.2 1.2-.66 0-1.2-.54-1.2-1.2V72.22L53.2 91.08v20.56c0 .66-.54 1.2-1.2 1.2-.66 0-1.2-.54-1.2-1.2V92.58c-.73.12-1.5.03-2.2-.32l-16.82-8.33v27.72c0 .66-.54 1.2-1.2 1.2s-1.2-.54-1.2-1.2V83.68L11.27 98.8c-.67.56-1.49.84-2.31.84a3.62 3.62 0 01-2.77-1.29 3.603 3.603 0 01.46-5.08l20.62-17.22c1.1-.92 2.63-1.1 3.91-.46l18.2 9.02 18.79-20.34c1.11-1.2 2.89-1.5 4.33-.74l17.14 9.08 18.35-29.69a3.604 3.604 0 014.96-1.17c1.68 1.03 2.2 3.25 1.16 4.94" fill="#00397b"/></g></svg>