<svg version="1.1" id="Layer_1" xmlns="http://www.w3.org/2000/svg" x="0" y="0" viewBox="0 0 120 120" xml:space="preserve"><path d="M83.22 71.92c-.18-1.41.53-10.64-.47-14.14l-5 2.19c.67 2.52-.1 11.1.07 12.31l-6.94.34 9.61 12.05L89.4 71.4l-6.18.52zM65.8 38.54c1.44.89 2.81 2.36 3.85 3.6l5.07-2.22c-1.55-2.13-3.67-4.5-6.08-5.99-5.01-3.1-10.93-3.31-17.64-.74-10.9 4.18-11.95 13.34-10.97 21.92l5.19-2.27c-.62-7.04.92-11.91 7.74-14.54 5.12-1.97 9.3-1.95 12.84.24zM11.03 55.85l-5.1 1.76c.08.23 1.66 4.95 4.33 10.53l4.95-2.17c-2.46-5.1-4.16-10.06-4.18-10.12zm30.58 35.14c0 .01-.01.01 0 0-2.8 1.23-5.48 1.28-8.27.04-2.91-1.3-5.89-3.97-8.77-7.77l-5.07 2.22c3.69 5.14 7.55 8.56 11.59 10.37 4.2 1.88 8.38 1.71 12.58-.13h.01c9.78-4.28 8.47-14.4 6.56-23.69l-5.06 2.21c1.79 8.78 1.99 14.32-3.57 16.75z" fill="#1e7ae1"/><path fill="#00397b" d="M116.59 32.3l-29.46-9.48 5.52 12.61L3.41 74.52 8.79 86.8l89.24-39.09 5.55 12.68z"/><path transform="rotate(-23.673 85.698 29.198)" fill="#1e7ae1" d="M84.92 23.78h1.55v10.83h-1.55z"/><path transform="rotate(-23.638 97.895 57.058)" fill="#1e7ae1" d="M97.12 51.64h1.55v10.82h-1.55z"/><path transform="rotate(-23.627 81.92 30.852)" fill="#1e7ae1" d="M81.67 25.44h.51v10.83h-.51z"/><path transform="rotate(-23.573 94.12 58.715)" fill="#1e7ae1" d="M93.86 53.3h.52v10.83h-.52z"/></svg>