<svg version="1.1" id="Layer_1" xmlns="http://www.w3.org/2000/svg" x="0" y="0" viewBox="0 0 120 120" xml:space="preserve"><path d="M38.6 69.71c-9.46 0-17.17-7.72-17.17-17.17s7.72-17.17 17.17-17.17 17.17 7.72 17.17 17.17h-3.24c0-7.72-6.22-13.94-13.94-13.94s-13.94 6.22-13.94 13.94 6.22 13.94 13.94 13.94v3.23z" fill="#1e7ae1"/><path fill="#1e7ae1" d="M60.12 99.08h-3.11V65.85H48.8v33.23h-3.24V62.61h14.56z"/><path fill="#00397b" d="M78.79 99.08h-3.23V49.05h-8.09v50.03h-3.24V45.81h14.56z"/><path fill="#1e7ae1" d="M97.33 99.08h-3.11V30.51h-8.21v68.57H82.9V27.4h14.43z"/><path fill="#00397b" d="M116 99.08h-3.24V16.44h-8.08v82.64h-3.24V13.21H116z"/><path fill="#1e7ae1" d="M45.94 103.56h69.69v3.24H45.94z"/><path fill="#00397b" d="M38.6 77.67H4V27.4h69.07v14.56h-3.11V30.51H7.24v43.93H38.6z"/><path d="M44.94 49.99c0 .11-.03.19-.1.26s-.15.1-.26.1h-1.91c-.17 1.09-.66 1.98-1.47 2.67-.8.68-1.85 1.1-3.15 1.26 1.28 1.34 3.02 3.38 5.24 6.1.11.12.12.25.04.38-.07.15-.18.22-.34.22h-2.21c-.12 0-.21-.05-.28-.14-2.33-2.79-4.22-4.96-5.68-6.5a.388.388 0 01-.1-.26v-1.45c0-.09.03-.17.1-.24.08-.08.17-.12.26-.12h1.28c1.01 0 1.82-.16 2.43-.48.61-.33 1-.81 1.16-1.43h-4.86c-.11 0-.19-.03-.26-.1s-.1-.15-.1-.26v-1.16c0-.11.03-.2.1-.28.07-.07.15-.1.26-.1h4.7c-.43-.85-1.44-1.28-3.05-1.28h-1.65c-.09 0-.18-.04-.26-.12a.34.34 0 01-.1-.26v-1.51c0-.11.03-.19.1-.26s.15-.1.26-.1h9.49c.11 0 .19.03.26.1s.1.15.1.26v1.18c0 .11-.03.19-.1.26a.34.34 0 01-.26.1h-2.65c.35.47.58 1.01.72 1.63h1.95c.11 0 .19.03.26.1.07.08.1.17.1.28v1.15z" fill="#00397b"/></svg>