<?xml version="1.0" encoding="utf-8"?>
<!-- Generator: Adobe Illustrator 25.2.1, SVG Export Plug-In . SVG Version: 6.00 Build 0)  -->
<svg version="1.1" id="Layer_1" xmlns="http://www.w3.org/2000/svg" xmlns:xlink="http://www.w3.org/1999/xlink" x="0px" y="0px"
	 viewBox="0 0 120 120" style="enable-background:new 0 0 120 120;" xml:space="preserve">
<path style="fill:#1E7AE1;" d="M70.87,31.79c-4.57-3.85-9.62-6.38-10.59-6.86c-0.12,0-0.12-0.12-0.12-0.24c0-0.48,0-1.68,0-3.01
	c0.48-0.96,0.72-1.92,0.84-2.89c0.36,0.24,1.08,0.12,1.8-2.53c0.6-2.17,0.24-2.89-0.24-3.13h-0.12c0.12-0.36,0.12-0.48,0.12-0.48
	c2.05-8.42-2.65-8.06-2.65-8.06c-0.36-1.68-2.77-3.49-5.05-3.01c-2.17,0.48-6.74-0.12-6.74-0.12c-0.12,0.96,0.72,1.68,0.72,1.68
	c-4.69,2.89-2.77,9.5-2.77,9.5c-0.72-0.12-1.56,0.36-0.72,3.13c0.6,2.05,1.08,2.65,1.56,2.65c0.12,1.2,0.6,2.41,1.2,3.61v2.53
	c0,0.12-0.12,0.24-0.12,0.24c-0.96,0.48-6.02,3.01-10.59,6.86c-0.84,0.72-1.32,1.68-1.32,2.77v5.17v19.13
	c0,2.89,0.96,5.53,2.77,7.82l3.85,4.57l3.49,44.63c0.12,1.56,1.44,2.77,3.01,2.77l11.55-0.24c1.2,0,3.01-0.09,3.07-2.74
	c-0.02-1.1-0.02-2.44,0-3.96c-2.13-2.44-4.02-4.53-5.63-6.24l-0.21-0.23c-0.87-1.05-1.33-2.31-1.33-3.65v-3.19
	c0-1.03,0.28-2.01,0.79-2.86c-0.52-0.86-0.79-1.86-0.79-2.91v-2.54c0-0.77,0.16-1.53,0.45-2.23c-0.29-0.69-0.45-1.45-0.45-2.23V82.2
	c0-1.51,0.58-2.92,1.63-3.97c1.05-1.05,2.46-1.63,3.97-1.63h2.91c0.17-3.41,0.29-5.59,0.29-5.59l3.85-4.57
	c1.8-2.17,2.89-4.93,2.89-7.82V39.61v-5.05C72.19,33.47,71.71,32.39,70.87,31.79z M54.15,51.88l-2.89-3.13l1.8-15.64
	c-3.61-5.17,0.36-5.41,1.08-5.41c0.72,0,4.69,0.24,0.96,5.41l1.8,15.64L54.15,51.88z"/>
<path d="M83.9,92.51c0,0.23-0.07,0.42-0.22,0.57c-0.15,0.15-0.34,0.22-0.57,0.22h-4.2c-0.38,2.39-1.46,4.34-3.23,5.86
	c-1.75,1.49-4.05,2.4-6.91,2.75c2.8,2.94,6.63,7.4,11.5,13.38c0.23,0.26,0.26,0.54,0.09,0.83c-0.15,0.32-0.39,0.48-0.74,0.48h-4.85
	c-0.26,0-0.47-0.1-0.61-0.31c-5.1-6.12-9.25-10.87-12.46-14.25c-0.15-0.18-0.22-0.36-0.22-0.57v-3.19c0-0.2,0.07-0.38,0.22-0.52
	c0.18-0.18,0.36-0.26,0.57-0.26h2.8c2.21,0,3.99-0.35,5.33-1.05c1.34-0.73,2.19-1.78,2.54-3.15H62.26c-0.23,0-0.42-0.07-0.57-0.22
	c-0.15-0.15-0.22-0.33-0.22-0.57v-2.54c0-0.23,0.07-0.44,0.22-0.61c0.15-0.15,0.33-0.22,0.57-0.22h10.31
	c-0.93-1.86-3.16-2.8-6.69-2.8h-3.63c-0.2,0-0.39-0.09-0.57-0.26c-0.15-0.15-0.22-0.33-0.22-0.57V82.2c0-0.23,0.07-0.42,0.22-0.57
	s0.33-0.22,0.57-0.22h20.81c0.23,0,0.42,0.07,0.57,0.22c0.15,0.15,0.22,0.33,0.22,0.57v2.58c0,0.23-0.07,0.42-0.22,0.57
	c-0.15,0.15-0.33,0.22-0.57,0.22h-5.81c0.76,1.02,1.28,2.21,1.57,3.58h4.28c0.23,0,0.42,0.07,0.57,0.22
	c0.14,0.18,0.22,0.38,0.22,0.61V92.51z"/>
<path style="fill:#00397B;" d="M83.9,92.51c0,0.23-0.07,0.42-0.22,0.57c-0.15,0.15-0.34,0.22-0.57,0.22h-4.2
	c-0.38,2.39-1.46,4.34-3.23,5.86c-1.75,1.49-4.05,2.4-6.91,2.75c2.8,2.94,6.63,7.4,11.5,13.38c0.23,0.26,0.26,0.54,0.09,0.83
	c-0.15,0.32-0.39,0.48-0.74,0.48h-4.85c-0.26,0-0.47-0.1-0.61-0.31c-5.1-6.12-9.25-10.87-12.46-14.25
	c-0.15-0.18-0.22-0.36-0.22-0.57v-3.19c0-0.2,0.07-0.38,0.22-0.52c0.18-0.18,0.36-0.26,0.57-0.26h2.8c2.21,0,3.99-0.35,5.33-1.05
	c1.34-0.73,2.19-1.78,2.54-3.15H62.26c-0.23,0-0.42-0.07-0.57-0.22c-0.15-0.15-0.22-0.33-0.22-0.57v-2.54
	c0-0.23,0.07-0.44,0.22-0.61c0.15-0.15,0.33-0.22,0.57-0.22h10.31c-0.93-1.86-3.16-2.8-6.69-2.8h-3.63c-0.2,0-0.39-0.09-0.57-0.26
	c-0.15-0.15-0.22-0.33-0.22-0.57V82.2c0-0.23,0.07-0.42,0.22-0.57s0.33-0.22,0.57-0.22h20.81c0.23,0,0.42,0.07,0.57,0.22
	c0.15,0.15,0.22,0.33,0.22,0.57v2.58c0,0.23-0.07,0.42-0.22,0.57c-0.15,0.15-0.33,0.22-0.57,0.22h-5.81
	c0.76,1.02,1.28,2.21,1.57,3.58h4.28c0.23,0,0.42,0.07,0.57,0.22c0.14,0.18,0.22,0.38,0.22,0.61V92.51z"/>
</svg>
