<?xml version="1.0" encoding="utf-8"?>
<!-- Generator: Adobe Illustrator 25.2.1, SVG Export Plug-In . SVG Version: 6.00 Build 0)  -->
<svg version="1.1" id="Layer_1" xmlns="http://www.w3.org/2000/svg" xmlns:xlink="http://www.w3.org/1999/xlink" x="0px" y="0px"
	 viewBox="0 0 120 120" style="enable-background:new 0 0 120 120;" xml:space="preserve">
<g>
	<path style="fill-rule:evenodd;clip-rule:evenodd;fill:#1E7AE1;" d="M33.02,61.12c-14.9,0-26.98-12.08-26.98-26.98
		c0-14.9,12.08-26.98,26.98-26.98C47.92,7.15,60,19.23,60,34.14C60,49.04,47.92,61.12,33.02,61.12 M43.52,28.43
		c0,0.22-0.07,0.39-0.21,0.53c-0.14,0.14-0.32,0.21-0.53,0.21h-3.93c-0.36,2.24-1.37,4.06-3.02,5.48c-1.64,1.39-3.79,2.25-6.47,2.57
		c2.62,2.75,6.21,6.93,10.76,12.52c0.22,0.24,0.24,0.51,0.08,0.78c-0.14,0.3-0.36,0.45-0.69,0.45h-4.54c-0.24,0-0.44-0.09-0.57-0.29
		c-4.77-5.73-8.66-10.17-11.66-13.34c-0.14-0.17-0.21-0.34-0.21-0.53v-2.99c0-0.19,0.07-0.36,0.21-0.49
		c0.17-0.17,0.34-0.24,0.53-0.24h2.62c2.07,0,3.73-0.33,4.99-0.98c1.25-0.68,2.05-1.67,2.38-2.95h-10c-0.22,0-0.39-0.07-0.53-0.21
		s-0.21-0.31-0.21-0.53v-2.38c0-0.22,0.07-0.41,0.21-0.57c0.14-0.14,0.31-0.21,0.53-0.21h9.65c-0.87-1.74-2.96-2.62-6.26-2.62h-3.4
		c-0.19,0-0.37-0.08-0.53-0.24c-0.14-0.14-0.21-0.31-0.21-0.53v-3.1c0-0.22,0.07-0.39,0.21-0.53s0.31-0.21,0.53-0.21h19.48
		c0.22,0,0.39,0.07,0.53,0.21c0.14,0.14,0.21,0.31,0.21,0.53v2.41c0,0.22-0.07,0.39-0.21,0.53c-0.14,0.14-0.31,0.21-0.53,0.21h-5.44
		c0.71,0.95,1.2,2.07,1.47,3.35h4.01c0.22,0,0.39,0.07,0.53,0.21c0.13,0.17,0.21,0.36,0.21,0.57L43.52,28.43L43.52,28.43z"/>
	<path style="fill-rule:evenodd;clip-rule:evenodd;fill:#00397B;" d="M114.11,46.69L93.99,79.26c-0.43,0.69-1.05,1.17-1.76,1.45
		v30.94c0,0.66-0.54,1.2-1.2,1.2c-0.66,0-1.2-0.54-1.2-1.2V80.79c-0.2-0.06-0.4-0.14-0.59-0.24l-16.22-8.59v39.69
		c0,0.66-0.54,1.2-1.2,1.2c-0.66,0-1.2-0.54-1.2-1.2V72.22L53.2,91.08v20.56c0,0.66-0.54,1.2-1.2,1.2c-0.66,0-1.2-0.54-1.2-1.2
		V92.58c-0.73,0.12-1.5,0.03-2.2-0.32l-16.82-8.33v27.72c0,0.66-0.54,1.2-1.2,1.2s-1.2-0.54-1.2-1.2V83.68L11.27,98.8
		c-0.67,0.56-1.49,0.84-2.31,0.84c-1.03,0-2.05-0.44-2.77-1.29c-1.28-1.53-1.07-3.8,0.46-5.08l20.62-17.22
		c1.1-0.92,2.63-1.1,3.91-0.46l18.2,9.02l18.79-20.34c1.11-1.2,2.89-1.5,4.33-0.74l17.14,9.08l18.35-29.69
		c1.05-1.69,3.27-2.22,4.96-1.17C114.63,42.78,115.15,45,114.11,46.69"/>
</g>
</svg>
