<?xml version="1.0" encoding="utf-8"?>
<!-- Generator: Adobe Illustrator 25.2.1, SVG Export Plug-In . SVG Version: 6.00 Build 0)  -->
<svg version="1.1" id="Layer_1" xmlns="http://www.w3.org/2000/svg" xmlns:xlink="http://www.w3.org/1999/xlink" x="0px" y="0px"
	 viewBox="0 0 120 120" style="enable-background:new 0 0 120 120;" xml:space="preserve">
<g>
	<g>
		<path style="fill:#1E7AE1;" d="M83.22,71.92c-0.18-1.41,0.53-10.64-0.47-14.14l-5,2.19c0.67,2.52-0.1,11.1,0.07,12.31l-6.94,0.34
			l9.61,12.05l8.91-13.27L83.22,71.92z"/>
		<path style="fill:#1E7AE1;" d="M65.8,38.54c1.44,0.89,2.81,2.36,3.85,3.6l5.07-2.22c-1.55-2.13-3.67-4.5-6.08-5.99
			c-5.01-3.1-10.93-3.31-17.64-0.74c-10.9,4.18-11.95,13.34-10.97,21.92l5.19-2.27c-0.62-7.04,0.92-11.91,7.74-14.54
			C58.08,36.33,62.26,36.35,65.8,38.54z"/>
		<path style="fill:#1E7AE1;" d="M11.03,55.85l-5.1,1.76c0.08,0.23,1.66,4.95,4.33,10.53l4.95-2.17
			C12.75,60.87,11.05,55.91,11.03,55.85z"/>
		<path style="fill:#1E7AE1;" d="M41.61,90.99C41.61,91,41.6,91,41.61,90.99c-2.8,1.23-5.48,1.28-8.27,0.04
			c-2.91-1.3-5.89-3.97-8.77-7.77l-5.07,2.22c3.69,5.14,7.55,8.56,11.59,10.37c4.2,1.88,8.38,1.71,12.58-0.13c0,0,0.01,0,0.01,0
			c9.78-4.28,8.47-14.4,6.56-23.69l-5.06,2.21C46.97,83.02,47.17,88.56,41.61,90.99z"/>
	</g>
</g>
<polygon style="fill:#00397B;" points="116.59,32.3 87.13,22.82 92.65,35.43 3.41,74.52 8.79,86.8 98.03,47.71 103.58,60.39 "/>
<rect x="84.92" y="23.78" transform="matrix(0.9158 -0.4015 0.4015 0.9158 -4.5119 36.8645)" style="fill:#1E7AE1;" width="1.55" height="10.83"/>
<rect x="97.12" y="51.64" transform="matrix(0.9161 -0.4009 0.4009 0.9161 -14.6613 44.0333)" style="fill:#1E7AE1;" width="1.55" height="10.82"/>
<rect x="81.67" y="25.44" transform="matrix(0.9162 -0.4008 0.4008 0.9162 -5.498 35.4202)" style="fill:#1E7AE1;" width="0.51" height="10.83"/>
<rect x="93.86" y="53.3" transform="matrix(0.9165 -0.3999 0.3999 0.9165 -15.626 42.5382)" style="fill:#1E7AE1;" width="0.52" height="10.83"/>
</svg>
