<?xml version="1.0" encoding="utf-8"?>
<!-- Generator: Adobe Illustrator 25.2.1, SVG Export Plug-In . SVG Version: 6.00 Build 0)  -->
<svg version="1.1" id="Layer_1" xmlns="http://www.w3.org/2000/svg" xmlns:xlink="http://www.w3.org/1999/xlink" x="0px" y="0px"
	 viewBox="0 0 120 120" style="enable-background:new 0 0 120 120;" xml:space="preserve">
<path style="fill:#1E7AE1;" d="M38.6,69.71c-9.46,0-17.17-7.72-17.17-17.17s7.72-17.17,17.17-17.17s17.17,7.72,17.17,17.17h-3.24
	c0-7.72-6.22-13.94-13.94-13.94s-13.94,6.22-13.94,13.94s6.22,13.94,13.94,13.94V69.71z"/>
<polygon style="fill:#1E7AE1;" points="60.12,99.08 57.01,99.08 57.01,65.85 48.8,65.85 48.8,99.08 45.56,99.08 45.56,62.61 
	60.12,62.61 "/>
<polygon style="fill:#00397B;" points="78.79,99.08 75.56,99.08 75.56,49.05 67.47,49.05 67.47,99.08 64.23,99.08 64.23,45.81 
	78.79,45.81 "/>
<polygon style="fill:#1E7AE1;" points="97.33,99.08 94.22,99.08 94.22,30.51 86.01,30.51 86.01,99.08 82.9,99.08 82.9,27.4 
	97.33,27.4 "/>
<polygon style="fill:#00397B;" points="116,99.08 112.76,99.08 112.76,16.44 104.68,16.44 104.68,99.08 101.44,99.08 101.44,13.21 
	116,13.21 "/>
<rect x="45.94" y="103.56" style="fill:#1E7AE1;" width="69.69" height="3.24"/>
<polygon style="fill:#00397B;" points="38.6,77.67 4,77.67 4,27.4 73.07,27.4 73.07,41.96 69.96,41.96 69.96,30.51 7.24,30.51 
	7.24,74.44 38.6,74.44 "/>
<path style="fill:#00397B;" d="M44.94,49.99c0,0.11-0.03,0.19-0.1,0.26s-0.15,0.1-0.26,0.1h-1.91c-0.17,1.09-0.66,1.98-1.47,2.67
	c-0.8,0.68-1.85,1.1-3.15,1.26c1.28,1.34,3.02,3.38,5.24,6.1c0.11,0.12,0.12,0.25,0.04,0.38c-0.07,0.15-0.18,0.22-0.34,0.22h-2.21
	c-0.12,0-0.21-0.05-0.28-0.14c-2.33-2.79-4.22-4.96-5.68-6.5c-0.07-0.08-0.1-0.17-0.1-0.26v-1.45c0-0.09,0.03-0.17,0.1-0.24
	c0.08-0.08,0.17-0.12,0.26-0.12h1.28c1.01,0,1.82-0.16,2.43-0.48c0.61-0.33,1-0.81,1.16-1.43h-4.86c-0.11,0-0.19-0.03-0.26-0.1
	s-0.1-0.15-0.1-0.26v-1.16c0-0.11,0.03-0.2,0.1-0.28c0.07-0.07,0.15-0.1,0.26-0.1h4.7c-0.43-0.85-1.44-1.28-3.05-1.28h-1.65
	c-0.09,0-0.18-0.04-0.26-0.12c-0.07-0.07-0.1-0.15-0.1-0.26v-1.51c0-0.11,0.03-0.19,0.1-0.26s0.15-0.1,0.26-0.1h9.49
	c0.11,0,0.19,0.03,0.26,0.1s0.1,0.15,0.1,0.26v1.18c0,0.11-0.03,0.19-0.1,0.26c-0.07,0.07-0.15,0.1-0.26,0.1h-2.65
	c0.35,0.47,0.58,1.01,0.72,1.63h1.95c0.11,0,0.19,0.03,0.26,0.1c0.07,0.08,0.1,0.17,0.1,0.28V49.99z"/>
</svg>
